<svg xmlns="http://www.w3.org/2000/svg" width="19.339" height="18.291" viewBox="0 0 19.339 18.291">
  <defs>
    <style>
      .cls-1 {
        fill: #fff;
      }
    </style>
  </defs>
  <path id="Icon_awesome-buffer" data-name="Icon awesome-buffer" class="cls-1" d="M20.4,16.485l-9.185,3.994a.986.986,0,0,1-.686,0L1.346,16.485c-.187-.082-.187-.216,0-.3l2.2-.955a.988.988,0,0,1,.687,0l6.3,2.735a.981.981,0,0,0,.686,0l6.3-2.735a.987.987,0,0,1,.686,0l2.2.957C20.591,16.27,20.591,16.4,20.4,16.485Zm0-5.574-2.2-.957a.987.987,0,0,0-.686,0l-6.3,2.739a.99.99,0,0,1-.686,0l-6.3-2.739a.988.988,0,0,0-.687,0l-2.2.957c-.187.082-.187.216,0,.3L10.531,15.2a.986.986,0,0,0,.686,0L20.4,11.209c.189-.082.189-.216,0-.3ZM1.346,6.268,10.53,9.954a1.066,1.066,0,0,0,.686,0L20.4,6.268c.187-.076.187-.2,0-.275L11.216,2.307a1.055,1.055,0,0,0-.686,0L1.346,5.993c-.189.076-.189.2,0,.275Z" transform="translate(-1.204 -2.25)"/>
</svg>
