<svg xmlns="http://www.w3.org/2000/svg" width="20.339" height="20.339" viewBox="0 0 20.339 20.339">
  <defs>
    <style>
      .cls-1 {
        fill: #fff;
        stroke: #fff;
      }
    </style>
  </defs>
  <path id="Icon_awesome-buromobelexperte" data-name="Icon awesome-buromobelexperte" class="cls-1" d="M0,2.25V7.775H5.526V2.25ZM5.18,7.43H.345V2.6H5.18ZM6.907,2.25V7.775h5.526V2.25Zm5.18,5.18H7.252V2.6h4.835Zm1.727-5.18V7.775h5.526V2.25Zm5.18,5.18H14.159V2.6h4.835ZM0,9.157v5.525H5.526V9.157Zm5.18,5.18H.345V9.5H5.18Zm1.727-5.18v5.525h5.526V9.157Zm5.18,5.18H7.252V9.5h4.835Zm1.727-5.18v5.525h5.526V9.157Zm5.18,5.18H14.159V9.5h4.835ZM0,16.064v5.525H5.526V16.064Zm5.18,5.18H.345V16.409H5.18Zm1.727-5.18v5.525h5.526V16.064Zm5.18,5.18H7.252V16.409h4.835Zm1.727-5.18v5.525h5.526V16.064Z" transform="translate(0.5 -1.75)"/>
</svg>
