<svg xmlns="http://www.w3.org/2000/svg" width="19.339" height="17.405" viewBox="0 0 19.339 17.405">
  <defs>
    <style>
      .cls-1 {
        fill: #fff;
      }
    </style>
  </defs>
  <path id="Icon_material-business-center" data-name="Icon material-business-center" class="cls-1" d="M10.736,17.07V16.1H3.977l-.01,3.868A1.927,1.927,0,0,0,5.9,21.905H19.438a1.927,1.927,0,0,0,1.934-1.934V16.1H14.6v.967Zm9.67-8.7H16.528V6.434L14.594,4.5H10.726L8.792,6.434V8.368H4.934A1.94,1.94,0,0,0,3,10.3v2.9a1.927,1.927,0,0,0,1.934,1.934h5.8V13.2H14.6v1.934h5.8A1.94,1.94,0,0,0,22.339,13.2V10.3A1.94,1.94,0,0,0,20.405,8.368Zm-5.8,0H10.736V6.434H14.6Z" transform="translate(-3 -4.5)"/>
</svg>
