<svg xmlns="http://www.w3.org/2000/svg" width="14.941" height="13.074" viewBox="0 0 14.941 13.074">
  <defs>
    <style>
      .cls-1 {
        fill: #012340;
      }
    </style>
  </defs>
  <path id="Icon_awesome-wallet" data-name="Icon awesome-wallet" class="cls-1" d="M13.459,5.052H2.335a.467.467,0,1,1,0-.934H13.541a.467.467,0,0,0,.467-.467,1.4,1.4,0,0,0-1.4-1.4H1.868A1.868,1.868,0,0,0,0,4.118v9.338a1.868,1.868,0,0,0,1.868,1.868H13.459a1.445,1.445,0,0,0,1.482-1.4V6.452A1.445,1.445,0,0,0,13.459,5.052Zm-1.319,6.07a.934.934,0,1,1,.934-.934A.934.934,0,0,1,12.14,11.121Z" transform="translate(0 -2.25)"/>
</svg>
