<svg xmlns="http://www.w3.org/2000/svg" width="15.676" height="15.676" viewBox="0 0 15.676 15.676">
  <defs>
    <style>
      .cls-1 {
        fill: #012340;
      }
    </style>
  </defs>
  <path id="Icon_awesome-cookie-bite" data-name="Icon awesome-cookie-bite" class="cls-1" d="M15.63,7.832a3.917,3.917,0,0,1-3.872-3.915A3.916,3.916,0,0,1,7.843.046,4.04,4.04,0,0,0,5.4.439L3.286,1.517a4.048,4.048,0,0,0-1.769,1.77L.442,5.4A4.061,4.061,0,0,0,.05,7.874l.37,2.335a4.057,4.057,0,0,0,1.138,2.234L3.234,14.12A4.042,4.042,0,0,0,5.46,15.254l2.349.372a4.039,4.039,0,0,0,2.466-.391l2.116-1.078a4.05,4.05,0,0,0,1.769-1.77l1.075-2.109A4.059,4.059,0,0,0,15.63,7.832ZM5.388,11.267a.98.98,0,1,1,.98-.98A.98.98,0,0,1,5.388,11.267Zm.98-4.9a.98.98,0,1,1,.98-.98A.98.98,0,0,1,6.368,6.368Zm4.9,3.919a.98.98,0,1,1,.98-.98A.98.98,0,0,1,11.267,10.287Z" transform="translate(0 0)"/>
</svg>
