<svg xmlns="http://www.w3.org/2000/svg" width="15.196" height="14.027" viewBox="0 0 15.196 14.027">
  <defs>
    <style>
      .cls-1 {
        fill: #012340;
      }
    </style>
  </defs>
  <g id="Icon_ionic-md-wallet" data-name="Icon ionic-md-wallet" transform="translate(-3.375 -4.5)">
    <path id="Path_52" data-name="Path 52" class="cls-1" d="M9.026,14.63V8.4a1.559,1.559,0,0,1,1.56-1.56h7.2V6.06A1.554,1.554,0,0,0,16.237,4.5H4.982A1.579,1.579,0,0,0,3.375,6.034V16.993a1.579,1.579,0,0,0,1.607,1.534H16.233a1.551,1.551,0,0,0,1.545-1.56v-.778h-7.2A1.558,1.558,0,0,1,9.026,14.63Z"/>
    <path id="Path_53" data-name="Path 53" class="cls-1" d="M17.227,12.538v5.114a.586.586,0,0,0,.584.584h6.831a.586.586,0,0,0,.584-.584V12.538a.586.586,0,0,0-.584-.584H17.811A.586.586,0,0,0,17.227,12.538Zm2.816,3.722a1.17,1.17,0,1,1,1.092-1.092A1.17,1.17,0,0,1,20.043,16.26Z" transform="translate(-6.655 -3.581)"/>
  </g>
</svg>
