<svg xmlns="http://www.w3.org/2000/svg" width="18.273" height="18.273" viewBox="0 0 18.273 18.273">
  <defs>
    <style>
      .cls-1 {
        fill: #fff;
      }
    </style>
  </defs>
  <path id="Icon_material-track-changes" data-name="Icon material-track-changes" class="cls-1" d="M18.6,5.677,17.308,6.965a7.318,7.318,0,1,1-6.085-2.074V6.737a5.481,5.481,0,1,0,4.788,1.526L14.722,9.551a3.664,3.664,0,1,1-3.5-.941v1.955a1.809,1.809,0,0,0-.914,1.572,1.827,1.827,0,0,0,3.655,0,1.8,1.8,0,0,0-.914-1.572V3h-.914A9.14,9.14,0,1,0,18.6,5.677Z" transform="translate(-3 -3)"/>
</svg>
