<svg xmlns="http://www.w3.org/2000/svg" width="15.196" height="12.157" viewBox="0 0 15.196 12.157">
  <defs>
    <style>
      .cls-1 {
        fill: #012340;
      }
    </style>
  </defs>
  <path id="Icon_awesome-chalkboard-teacher" data-name="Icon awesome-chalkboard-teacher" class="cls-1" d="M4.939,8.358a.543.543,0,0,0-.168.026,3.132,3.132,0,0,1-.972.164,3.135,3.135,0,0,1-.972-.164.542.542,0,0,0-.167-.026A2.66,2.66,0,0,0,0,11.032a1.137,1.137,0,0,0,1.14,1.125H6.458A1.137,1.137,0,0,0,7.6,11.032,2.66,2.66,0,0,0,4.939,8.358ZM3.8,7.6A2.279,2.279,0,1,0,1.52,5.319,2.279,2.279,0,0,0,3.8,7.6ZM14.056,0H4.939A1.16,1.16,0,0,0,3.8,1.177v1.1a3,3,0,0,1,1.52.423V1.52h8.358V8.358h-1.52V6.838H9.118v1.52H7.307a3.026,3.026,0,0,1,.942,1.52h5.807A1.16,1.16,0,0,0,15.2,8.7V1.177A1.16,1.16,0,0,0,14.056,0Z" transform="translate(0)"/>
</svg>
