<svg xmlns="http://www.w3.org/2000/svg" width="19.339" height="19.338" viewBox="0 0 19.339 19.338">
  <defs>
    <style>
      .cls-1 {
        fill: #fff;
      }
    </style>
  </defs>
  <path id="Icon_awesome-cookie" data-name="Icon awesome-cookie" class="cls-1" d="M19.276,9.624l-.456-2.88a5,5,0,0,0-1.4-2.755L15.348,1.92A4.986,4.986,0,0,0,12.6.521L9.7.062A4.981,4.981,0,0,0,6.663.544L4.053,1.874A5,5,0,0,0,1.87,4.057L.544,6.658A5.008,5.008,0,0,0,.06,9.715L.516,12.6a5,5,0,0,0,1.4,2.755l2.068,2.068a4.989,4.989,0,0,0,2.746,1.4l2.9.459a4.984,4.984,0,0,0,3.041-.482l2.611-1.33a5,5,0,0,0,2.183-2.183l1.326-2.6a5.012,5.012,0,0,0,.484-3.058ZM6.647,13.9a1.209,1.209,0,1,1,1.209-1.209A1.209,1.209,0,0,1,6.647,13.9ZM7.855,7.856A1.209,1.209,0,1,1,9.064,6.648,1.209,1.209,0,0,1,7.855,7.856ZM13.9,12.691a1.209,1.209,0,1,1,1.209-1.209A1.209,1.209,0,0,1,13.9,12.691Z" transform="translate(0.002 0)"/>
</svg>
