<svg xmlns="http://www.w3.org/2000/svg" width="16.372" height="16.372" viewBox="0 0 16.372 16.372">
  <defs>
    <style>
      .cls-1 {
        fill: #787878;
      }
    </style>
  </defs>
  <path id="Icon_awesome-phone-alt" data-name="Icon awesome-phone-alt" class="cls-1" d="M15.9,11.569l-3.581-1.535a.767.767,0,0,0-.9.221L9.842,12.193A11.852,11.852,0,0,1,4.176,6.527L6.114,4.941a.766.766,0,0,0,.221-.9L4.8.464A.773.773,0,0,0,3.92.02L.595.787A.767.767,0,0,0,0,1.535,14.835,14.835,0,0,0,14.837,16.372a.767.767,0,0,0,.748-.595l.767-3.326a.777.777,0,0,0-.448-.883Z" transform="translate(0 0)"/>
</svg>
